<?xml version="1.0" encoding="UTF-8"?>
<svg id="Layer_1" data-name="Layer 1" xmlns="http://www.w3.org/2000/svg" viewBox="0 0 1985 690">
  <defs>
    <style>
      .cls-1 {
        fill: #020035;
      }

      .cls-1, .cls-2 {
        stroke-width: 0px;
      }

      .cls-2 {
        fill: #ed4b00;
      }
    </style>
  </defs>
  <path class="cls-2" d="M511,217h-29v-18h79v18h-29v79h-21v-79Z"/>
  <path class="cls-2" d="M569,199h21v37h39v-37h21v97h-21v-42h-39v42h-21v-97Z"/>
  <path class="cls-2" d="M665,199h73v18h-51v21h46v17h-46v23h52v18h-74v-97Z"/>
  <path class="cls-1" d="M518,393h36.18c6.37,0,11.6-1.52,15.7-4.55,4.1-3.03,6.14-7.96,6.14-14.79,0-3.79-.68-6.9-2.05-9.33-1.37-2.43-3.19-4.32-5.46-5.69-2.28-1.37-4.93-2.28-7.96-2.73-2.88-.61-5.92-.91-9.1-.91h-33.45v38ZM482,327h76.71c7.76,0,14.84.68,21.23,2.05,6.39,1.37,11.87,3.65,16.44,6.85,4.57,3.04,8.07,7.15,10.5,12.33,2.59,5.18,3.88,11.57,3.88,19.18,0,8.22-1.9,15.07-5.71,20.55-3.65,5.48-9.13,9.97-16.44,13.47,10.04,2.89,17.5,7.99,22.37,15.3,5.02,7.15,7.53,15.83,7.53,26.02,0,8.22-1.6,15.37-4.79,21.46-3.2,5.94-7.53,10.81-13.01,14.61-5.33,3.8-11.49,6.62-18.49,8.45-6.85,1.83-13.93,2.74-21.23,2.74h-78.99v-163ZM518,463h38.57c3.52,0,6.89-.31,10.1-.92,3.21-.77,6.05-1.91,8.5-3.44,2.45-1.68,4.36-3.9,5.74-6.66,1.53-2.76,2.3-6.28,2.3-10.56,0-8.42-2.37-14.39-7.12-17.91-4.75-3.67-11.02-5.51-18.83-5.51h-39.26v45Z"/>
  <path class="cls-1" d="M636,327h36v133h79v30h-115v-163Z"/>
  <path class="cls-1" d="M792.75,409.65c0,6.83.76,13.51,2.28,20.04,1.67,6.38,4.25,12.15,7.74,17.31,3.49,5.16,8.05,9.34,13.67,12.53,5.62,3.04,12.45,4.55,20.5,4.55s14.88-1.52,20.5-4.55c5.62-3.19,10.17-7.36,13.66-12.53,3.49-5.16,6-10.93,7.52-17.31,1.67-6.53,2.51-13.21,2.51-20.04s-.83-14.04-2.51-20.73c-1.52-6.68-4.02-12.6-7.52-17.76-3.49-5.32-8.05-9.49-13.66-12.53-5.62-3.19-12.45-4.78-20.5-4.78s-14.88,1.59-20.5,4.78c-5.62,3.04-10.17,7.21-13.67,12.53-3.49,5.16-6.07,11.08-7.74,17.76-1.52,6.68-2.28,13.59-2.28,20.73ZM756.99,409.65c0-12.15,1.82-23.38,5.47-33.71,3.64-10.48,8.88-19.59,15.71-27.33,6.83-7.74,15.18-13.82,25.05-18.22,10.02-4.4,21.26-6.61,33.71-6.61s23.84,2.2,33.71,6.61c9.87,4.4,18.22,10.48,25.05,18.22,6.83,7.74,12.07,16.85,15.71,27.33,3.64,10.32,5.47,21.56,5.47,33.71s-1.82,22.93-5.47,33.25c-3.64,10.17-8.88,19.06-15.71,26.65-6.83,7.59-15.18,13.59-25.05,17.99-9.87,4.25-21.1,6.38-33.71,6.38s-23.68-2.12-33.71-6.38c-9.87-4.4-18.22-10.4-25.05-17.99-6.83-7.59-12.07-16.47-15.71-26.65-3.64-10.32-5.47-21.41-5.47-33.25Z"/>
  <path class="cls-1" d="M1042.6,382c-.61-4.07-1.96-7.76-4.07-11.08-2.1-3.47-4.75-6.48-7.91-9.05-3.17-2.56-6.78-4.52-10.85-5.88-3.92-1.51-8.06-2.26-12.44-2.26-7.99,0-14.77,1.58-20.35,4.75-5.58,3.02-10.1,7.16-13.57,12.44-3.47,5.13-6.03,11-7.69,17.64-1.51,6.63-2.26,13.49-2.26,20.58s.75,13.42,2.26,19.9c1.66,6.33,4.22,12.06,7.69,17.19,3.47,5.13,7.99,9.27,13.57,12.44,5.58,3.02,12.36,4.52,20.35,4.52,10.86,0,19.3-3.32,25.33-9.95,6.19-6.63,9.95-15.38,11.31-26.23h34.37c-.9,10.1-3.25,19.22-7.01,27.36-3.77,8.14-8.75,15.08-14.92,20.8-6.19,5.73-13.42,10.1-21.71,13.12-8.29,3.02-17.42,4.52-27.36,4.52-12.36,0-23.51-2.11-33.46-6.33-9.8-4.37-18.09-10.33-24.87-17.86-6.78-7.54-11.98-16.36-15.6-26.46-3.62-10.25-5.43-21.26-5.43-33.01s1.81-23.22,5.43-33.47c3.62-10.4,8.82-19.45,15.6-27.14,6.78-7.69,15.08-13.72,24.87-18.09,9.95-4.37,21.11-6.56,33.46-6.56,8.9,0,17.27,1.28,25.1,3.84,7.99,2.56,15.08,6.33,21.26,11.31,6.33,4.82,11.54,10.85,15.61,18.09,4.07,7.24,6.63,15.53,7.69,24.87h-34.37Z"/>
  <path class="cls-1" d="M1096,327h36v67.57l63.97-67.57h44.94l-63.97,64.38,70.16,98.62h-45.17l-49.29-73.28-20.64,20.77v52.51h-36v-163Z"/>
  <path class="cls-1" d="M1254,327h36v133h79v30h-115v-163Z"/>
  <path class="cls-1" d="M1432.15,428h42.36l-20.61-60h-.45l-21.3,60ZM1435.63,327h36.76l60.96,163h-37.56l-12.23-36h-60.45l-12.69,36h-36.42l61.64-163Z"/>
  <path class="cls-1" d="M1541,327h35.66l66.9,110h.44v-110h33v163h-35.46l-67.1-109h-.45v109h-33v-163Z"/>
  <path class="cls-1" d="M1693,327h122v31h-86v34h79v28h-79v40h87v30h-123v-163Z"/>
  <path class="cls-1" d="M269,353h169v84.5l-84.5,84.5h-84.5v-169Z"/>
  <path class="cls-1" d="M168,210.16l42-42.16h42v355h-84V210.16Z"/>
  <path class="cls-1" d="M269,168h169v84.5l-84.5,84.5h-84.5v-169Z"/>
</svg>